<?xml version="1.0" encoding="UTF-8"?>
<svg id="Layer_2" data-name="Layer 2" xmlns="http://www.w3.org/2000/svg" viewBox="0 0 1496.79 1552.61">
  <defs>
    <style>
      .cls-1 {
        stroke-width: 0px;
      }
    </style>
  </defs>
  <g id="Layer_1-2" data-name="Layer 1">
    <g>
      <path class="cls-1" d="m1489.78,695.55c-339.35,3.12-624.95,229.01-717.63,538.74,105.93-5.96,202.26-52.7,266.9-130.07,28.83-34.53,80.49-39.2,115.02-10.13,34.79,28.83,39.46,80.49,10.38,115.02-100.48,120.47-252.1,189.27-415.93,189.27s-315.71-68.8-416.19-189.27c-28.83-34.53-24.4-86.19,10.38-115.02,34.79-29.07,86.19-24.4,115.02,10.13,63.87,76.6,158.9,123.33,264.05,129.82C629.35,925.33,345.04,699.71,7,695.55c-4.67,32.99-7,66.47-7,100.75,0,414.63,333.62,751.38,746.95,756.31,207.45-1.81,394.9-86.98,530.44-223.81,135.53-136.56,219.4-324.8,219.4-532.5,0-34.28-2.35-67.76-7.01-100.75Z"/>
      <path class="cls-1" d="m748.51,834.97c117.87-100.48,192.66-250.02,192.66-417.23S866.39,100.73,748.51,0c-118.13,100.47-192.9,250.28-192.9,417.75s74.77,317.01,192.9,417.23Z"/>
    </g>
  </g>
</svg>