<?xml version="1.0" encoding="UTF-8"?>
<svg id="Layer_1" data-name="Layer 1" xmlns="http://www.w3.org/2000/svg" viewBox="0 0 1500 1000">
  <defs>
    <style>
      .cls-1, .cls-2 {
        stroke-width: 0px;
      }

      .cls-2 {
        fill: #fff;
      }
    </style>
  </defs>
  <rect class="cls-1" x="-13.29" y="-8.86" width="1526.59" height="1017.72"/>
  <g>
    <g>
      <path class="cls-2" d="m745.91,643.53c-56.24,0-106.72-36.78-125.61-91.52l4.1-1.51c18.27,52.96,67.1,88.53,121.51,88.53s103.24-35.58,121.51-88.53l4.1,1.51c-18.89,54.74-69.36,91.52-125.61,91.52Z"/>
      <g>
        <path class="cls-2" d="m627.46,525.26l-21.19,2.99,1.18,8.33-3.95.56-3.01-21.33,3.95-.56,1.18,8.33,21.19-2.99.66,4.67Z"/>
        <path class="cls-2" d="m622.13,497.74l1.34-14.26,3.94.37-1.78,18.96-25.28-2.37,1.73-18.45,3.94.37-1.29,13.76,17.4,1.63Zm-10.87-.65l1.18-12.57,3.86.36-1.18,12.57-3.86-.36Z"/>
        <path class="cls-2" d="m628.61,476.49l-19.98-19.38,1.58-4.36,27.77-2.14-1.68,4.64-24.87,1.45.64-1.77,18.19,16.99-1.66,4.57Zm-3.73-6.94l-3.05-2.45,4.66-12.89,3.91.07-5.53,15.28Z"/>
        <path class="cls-2" d="m647.42,436.54c-1.11,1.64-2.41,3.06-3.89,4.24-1.48,1.18-2.9,1.97-4.23,2.35l-2.13-3.4c1.23-.4,2.49-1.07,3.76-2.01,1.28-.94,2.36-2.07,3.24-3.37.75-1.1,1.23-2.08,1.44-2.92.22-.84.23-1.56.04-2.16-.19-.6-.55-1.07-1.07-1.42-.64-.43-1.31-.55-2.01-.35-.7.2-1.42.58-2.14,1.16-.72.58-1.49,1.24-2.29,2-.8.76-1.64,1.49-2.51,2.2-.87.71-1.77,1.29-2.69,1.73-.93.44-1.9.65-2.94.62-1.03-.03-2.11-.42-3.23-1.17-1.14-.77-1.98-1.78-2.52-3.04-.54-1.25-.67-2.7-.4-4.34.27-1.64,1.06-3.42,2.36-5.34.85-1.26,1.86-2.41,3.02-3.43,1.16-1.03,2.35-1.8,3.57-2.31l2.2,3.28c-1.2.56-2.27,1.25-3.21,2.07-.95.82-1.73,1.69-2.35,2.61-.73,1.08-1.19,2.05-1.39,2.9-.19.85-.18,1.57.03,2.16.21.6.59,1.07,1.13,1.44.64.43,1.31.56,2,.37.7-.19,1.4-.57,2.11-1.15.71-.58,1.48-1.25,2.3-2.01.82-.76,1.66-1.5,2.52-2.21s1.75-1.3,2.67-1.74c.91-.45,1.88-.66,2.91-.62,1.03.04,2.09.43,3.19,1.17,1.12.76,1.95,1.76,2.49,3.01.54,1.25.67,2.7.39,4.35-.28,1.65-1.07,3.44-2.37,5.36Z"/>
        <path class="cls-2" d="m675.86,406.07l-3.86,2.71-14.62-20.76,15.16-10.67,2.27,3.23-11.3,7.95,12.34,17.53Zm-8.22-10.98l10.35-7.29,2.3,3.26-10.35,7.29-2.3-3.26Z"/>
        <path class="cls-2" d="m707.23,389.52c-1.86.69-3.69,1.01-5.48.97-1.79-.04-3.47-.39-5.03-1.07-1.56-.67-2.94-1.64-4.12-2.89-1.19-1.25-2.1-2.76-2.75-4.53-.65-1.77-.93-3.51-.85-5.24.09-1.72.51-3.34,1.26-4.87.75-1.53,1.8-2.88,3.14-4.07,1.34-1.19,2.93-2.12,4.77-2.8,1.86-.68,3.68-1.01,5.46-.97,1.78.04,3.45.4,5.01,1.07,1.56.67,2.93,1.64,4.12,2.89,1.18,1.25,2.1,2.76,2.75,4.53.65,1.77.94,3.52.85,5.25-.08,1.73-.51,3.36-1.26,4.87-.76,1.52-1.8,2.86-3.12,4.05-1.33,1.19-2.91,2.12-4.75,2.79Zm-1.46-3.87c1.2-.44,2.24-1.06,3.11-1.84.87-.78,1.54-1.69,2.01-2.73.47-1.04.73-2.14.78-3.3.05-1.16-.15-2.36-.6-3.58-.45-1.23-1.07-2.27-1.87-3.12-.79-.85-1.7-1.52-2.73-2.01-1.03-.49-2.13-.74-3.3-.78-1.17-.03-2.36.17-3.56.62-1.2.44-2.23,1.05-3.09,1.83-.86.78-1.53,1.69-2.01,2.73-.48,1.04-.74,2.14-.79,3.31-.05,1.16.15,2.36.6,3.58.44,1.2,1.06,2.24,1.86,3.1.8.87,1.71,1.54,2.74,2.03,1.03.49,2.13.74,3.3.78,1.17.03,2.36-.17,3.56-.62Z"/>
        <path class="cls-2" d="m730.43,382.68l-2.05-25.3,10.41-.85c2.24-.18,4.19.02,5.85.62,1.66.59,2.98,1.53,3.96,2.81.98,1.28,1.54,2.85,1.69,4.7.15,1.85-.15,3.49-.91,4.9-.76,1.41-1.91,2.53-3.46,3.37-1.55.84-3.44,1.35-5.68,1.53l-7.81.63,1.92-2.3.77,9.51-4.7.38Zm3.97-9.38l-2.27-2.07,7.59-.62c2.07-.17,3.6-.74,4.57-1.72.98-.98,1.4-2.26,1.27-3.85-.13-1.61-.76-2.81-1.88-3.6-1.12-.78-2.72-1.09-4.79-.92l-7.59.62,1.91-2.48,1.19,14.64Zm12.59,8.04l-7.14-8.66,5.02-.41,7.18,8.66-5.06.41Z"/>
        <path class="cls-2" d="m775.41,383.29l18.73-20.6,4.41,1.44,3.04,27.69-4.69-1.53-2.26-24.8,1.79.58-16.4,18.73-4.62-1.5Zm6.82-3.96l2.35-3.12,13.03,4.24.06,3.91-15.45-5.03Z"/>
        <path class="cls-2" d="m832.12,412.86c-1.47-1.26-2.63-2.67-3.47-4.23s-1.35-3.19-1.52-4.87c-.17-1.69,0-3.36.53-5.01.52-1.65,1.4-3.2,2.62-4.63,1.23-1.44,2.61-2.54,4.16-3.31,1.55-.78,3.18-1.21,4.87-1.3,1.7-.09,3.38.15,5.05.73,1.67.58,3.25,1.5,4.74,2.78,1.58,1.35,2.79,2.85,3.64,4.51.84,1.66,1.26,3.4,1.25,5.24l-4.18.2c-.06-1.35-.35-2.58-.9-3.7-.54-1.11-1.32-2.1-2.33-2.97-1.01-.86-2.08-1.49-3.2-1.87-1.12-.38-2.24-.53-3.38-.45-1.13.08-2.22.39-3.27.93-1.05.54-1.99,1.3-2.84,2.29-.85.99-1.46,2.05-1.82,3.17-.36,1.12-.5,2.24-.4,3.38.1,1.13.43,2.22.98,3.27.55,1.04,1.34,2,2.35,2.86s2.11,1.48,3.3,1.84c1.19.36,2.46.45,3.82.28l.43,4.19c-1.79.28-3.58.14-5.36-.43-1.78-.56-3.47-1.53-5.07-2.89Z"/>
        <path class="cls-2" d="m844.34,423.55l27.37-5.11,2.65,3.81-14.31,23.9-2.82-4.05,13.19-21.13,1.07,1.55-24.38,5.02-2.77-3.99Zm7.83.97l3.76-1.07,7.82,11.26-2.31,3.15-9.27-13.34Z"/>
        <path class="cls-2" d="m866.85,464.26c-1.16-3.28-1.15-6.18.04-8.69,1.19-2.51,3.53-4.38,7.01-5.62l13.51-4.78,1.57,4.45-13.34,4.72c-2.46.87-4.06,2.04-4.8,3.49-.74,1.46-.77,3.15-.08,5.09.68,1.94,1.77,3.23,3.26,3.89,1.49.65,3.46.54,5.92-.33l13.33-4.72,1.55,4.38-13.51,4.78c-3.49,1.23-6.48,1.25-8.99.04-2.51-1.2-4.33-3.44-5.49-6.69Z"/>
        <path class="cls-2" d="m873.5,494.6c-.18-1.98-.07-3.89.34-5.75.4-1.86,1-3.36,1.8-4.5l3.8,1.3c-.7,1.08-1.25,2.4-1.65,3.94-.4,1.54-.52,3.09-.38,4.66.12,1.32.36,2.38.72,3.18.36.79.81,1.36,1.34,1.7.53.34,1.1.48,1.73.43.77-.07,1.36-.4,1.78-1s.73-1.35.93-2.25.37-1.9.51-3c.14-1.09.33-2.19.56-3.29.23-1.1.56-2.12,1-3.04.44-.93,1.07-1.71,1.88-2.34.82-.63,1.9-1.01,3.25-1.13,1.37-.12,2.66.13,3.87.76,1.21.63,2.22,1.67,3.05,3.11.82,1.44,1.34,3.32,1.55,5.63.14,1.52.08,3.04-.17,4.57-.25,1.53-.68,2.88-1.31,4.05l-3.78-1.15c.57-1.19.97-2.41,1.18-3.64.22-1.23.28-2.4.18-3.51-.12-1.3-.37-2.34-.76-3.12-.39-.78-.85-1.33-1.39-1.66-.54-.33-1.13-.46-1.78-.4-.77.07-1.37.4-1.79.98-.42.58-.72,1.33-.91,2.23s-.35,1.91-.51,3.01c-.15,1.11-.34,2.21-.56,3.31-.22,1.1-.54,2.11-.97,3.04-.43.92-1.05,1.7-1.87,2.32s-1.89.99-3.21,1.11c-1.35.12-2.63-.13-3.84-.76-1.21-.63-2.22-1.67-3.05-3.13-.82-1.46-1.34-3.34-1.55-5.65Z"/>
        <path class="cls-2" d="m877.53,520.57l-2.11,14.17-3.91-.58,2.8-18.83,25.11,3.74-2.73,18.33-3.91-.58,2.04-13.67-17.29-2.57Zm10.81,1.24l-1.86,12.48-3.84-.57,1.86-12.48,3.84.57Z"/>
      </g>
    </g>
    <g>
      <path class="cls-2" d="m843.45,498.71c-42.78.39-78.78,28.87-90.46,67.91,13.35-.75,25.49-6.64,33.64-16.4,3.63-4.35,10.15-4.94,14.5-1.28,4.38,3.63,4.97,10.15,1.31,14.5-12.67,15.19-31.78,23.86-52.43,23.86s-39.8-8.67-52.46-23.86c-3.63-4.35-3.08-10.86,1.31-14.5,4.38-3.66,10.86-3.08,14.5,1.28,8.05,9.66,20.03,15.55,33.28,16.36-11.65-38.91-47.49-67.35-90.1-67.88-.59,4.16-.88,8.38-.88,12.7,0,52.27,42.05,94.71,94.16,95.34,26.15-.23,49.78-10.96,66.86-28.21,17.08-17.21,27.66-40.94,27.66-67.12,0-4.32-.3-8.54-.88-12.7Z"/>
      <path class="cls-2" d="m750.02,516.29c14.86-12.67,24.29-31.52,24.29-52.59s-9.43-39.96-24.29-52.66c-14.89,12.66-24.32,31.55-24.32,52.66s9.43,39.96,24.32,52.59Z"/>
    </g>
  </g>
</svg>